<svg xmlns="http://www.w3.org/2000/svg" width="1400" height="900" viewBox="0 0 1400 900">
<rect width="100%" height="100%" fill="#ffffff" />
<line x1="120.00" y1="790.00" x2="1280.00" y2="790.00" stroke="#d4d4d4" stroke-width="1.5" stroke-dasharray="4 6" />
<text x="102.00" y="797.00" font-family="Helvetica, Arial, sans-serif" font-size="22" font-weight="normal" text-anchor="end" fill="#222222">0</text>
<line x1="120.00" y1="706.67" x2="1280.00" y2="706.67" stroke="#d4d4d4" stroke-width="1.5" stroke-dasharray="4 6" />
<text x="102.00" y="713.67" font-family="Helvetica, Arial, sans-serif" font-size="22" font-weight="normal" text-anchor="end" fill="#222222">20</text>
<line x1="120.00" y1="623.33" x2="1280.00" y2="623.33" stroke="#d4d4d4" stroke-width="1.5" stroke-dasharray="4 6" />
<text x="102.00" y="630.33" font-family="Helvetica, Arial, sans-serif" font-size="22" font-weight="normal" text-anchor="end" fill="#222222">40</text>
<line x1="120.00" y1="540.00" x2="1280.00" y2="540.00" stroke="#d4d4d4" stroke-width="1.5" stroke-dasharray="4 6" />
<text x="102.00" y="547.00" font-family="Helvetica, Arial, sans-serif" font-size="22" font-weight="normal" text-anchor="end" fill="#222222">60</text>
<line x1="120.00" y1="456.67" x2="1280.00" y2="456.67" stroke="#d4d4d4" stroke-width="1.5" stroke-dasharray="4 6" />
<text x="102.00" y="463.67" font-family="Helvetica, Arial, sans-serif" font-size="22" font-weight="normal" text-anchor="end" fill="#222222">80</text>
<line x1="120.00" y1="373.33" x2="1280.00" y2="373.33" stroke="#d4d4d4" stroke-width="1.5" stroke-dasharray="4 6" />
<text x="102.00" y="380.33" font-family="Helvetica, Arial, sans-serif" font-size="22" font-weight="normal" text-anchor="end" fill="#222222">100</text>
<line x1="120.00" y1="290.00" x2="1280.00" y2="290.00" stroke="#d4d4d4" stroke-width="1.5" stroke-dasharray="4 6" />
<text x="102.00" y="297.00" font-family="Helvetica, Arial, sans-serif" font-size="22" font-weight="normal" text-anchor="end" fill="#222222">120</text>
<line x1="120.00" y1="206.67" x2="1280.00" y2="206.67" stroke="#d4d4d4" stroke-width="1.5" stroke-dasharray="4 6" />
<text x="102.00" y="213.67" font-family="Helvetica, Arial, sans-serif" font-size="22" font-weight="normal" text-anchor="end" fill="#222222">140</text>
<line x1="120.00" y1="123.33" x2="1280.00" y2="123.33" stroke="#d4d4d4" stroke-width="1.5" stroke-dasharray="4 6" />
<text x="102.00" y="130.33" font-family="Helvetica, Arial, sans-serif" font-size="22" font-weight="normal" text-anchor="end" fill="#222222">160</text>
<line x1="120.00" y1="40.00" x2="1280.00" y2="40.00" stroke="#d4d4d4" stroke-width="1.5" stroke-dasharray="4 6" />
<text x="102.00" y="47.00" font-family="Helvetica, Arial, sans-serif" font-size="22" font-weight="normal" text-anchor="end" fill="#222222">180</text>
<line x1="120.00" y1="40.00" x2="120.00" y2="790.00" stroke="#d4d4d4" stroke-width="1.5" stroke-dasharray="4 6" />
<text x="120.00" y="836.00" font-family="Helvetica, Arial, sans-serif" font-size="22" font-weight="normal" text-anchor="middle" fill="#222222">10^-4</text>
<line x1="285.71" y1="40.00" x2="285.71" y2="790.00" stroke="#d4d4d4" stroke-width="1.5" stroke-dasharray="4 6" />
<text x="285.71" y="836.00" font-family="Helvetica, Arial, sans-serif" font-size="22" font-weight="normal" text-anchor="middle" fill="#222222">10^-3</text>
<line x1="451.43" y1="40.00" x2="451.43" y2="790.00" stroke="#d4d4d4" stroke-width="1.5" stroke-dasharray="4 6" />
<text x="451.43" y="836.00" font-family="Helvetica, Arial, sans-serif" font-size="22" font-weight="normal" text-anchor="middle" fill="#222222">10^-2</text>
<line x1="617.14" y1="40.00" x2="617.14" y2="790.00" stroke="#d4d4d4" stroke-width="1.5" stroke-dasharray="4 6" />
<text x="617.14" y="836.00" font-family="Helvetica, Arial, sans-serif" font-size="22" font-weight="normal" text-anchor="middle" fill="#222222">10^-1</text>
<line x1="782.86" y1="40.00" x2="782.86" y2="790.00" stroke="#d4d4d4" stroke-width="1.5" stroke-dasharray="4 6" />
<text x="782.86" y="836.00" font-family="Helvetica, Arial, sans-serif" font-size="22" font-weight="normal" text-anchor="middle" fill="#222222">10^0</text>
<line x1="948.57" y1="40.00" x2="948.57" y2="790.00" stroke="#d4d4d4" stroke-width="1.5" stroke-dasharray="4 6" />
<text x="948.57" y="836.00" font-family="Helvetica, Arial, sans-serif" font-size="22" font-weight="normal" text-anchor="middle" fill="#222222">10^1</text>
<line x1="1114.29" y1="40.00" x2="1114.29" y2="790.00" stroke="#d4d4d4" stroke-width="1.5" stroke-dasharray="4 6" />
<text x="1114.29" y="836.00" font-family="Helvetica, Arial, sans-serif" font-size="22" font-weight="normal" text-anchor="middle" fill="#222222">10^2</text>
<line x1="1280.00" y1="40.00" x2="1280.00" y2="790.00" stroke="#d4d4d4" stroke-width="1.5" stroke-dasharray="4 6" />
<text x="1280.00" y="836.00" font-family="Helvetica, Arial, sans-serif" font-size="22" font-weight="normal" text-anchor="middle" fill="#222222">10^3</text>
<line x1="120.00" y1="40.00" x2="120.00" y2="790.00" stroke="#222222" stroke-width="3" />
<line x1="120.00" y1="790.00" x2="1280.00" y2="790.00" stroke="#222222" stroke-width="3" />
<line x1="1280.00" y1="40.00" x2="1280.00" y2="790.00" stroke="#222222" stroke-width="3" />
<text x="1298.00" y="797.00" font-family="Helvetica, Arial, sans-serif" font-size="22" font-weight="normal" text-anchor="start" fill="#222222">0</text>
<text x="1298.00" y="704.08" font-family="Helvetica, Arial, sans-serif" font-size="22" font-weight="normal" text-anchor="start" fill="#222222">10</text>
<text x="1298.00" y="611.17" font-family="Helvetica, Arial, sans-serif" font-size="22" font-weight="normal" text-anchor="start" fill="#222222">20</text>
<text x="1298.00" y="518.25" font-family="Helvetica, Arial, sans-serif" font-size="22" font-weight="normal" text-anchor="start" fill="#222222">30</text>
<text x="1298.00" y="425.33" font-family="Helvetica, Arial, sans-serif" font-size="22" font-weight="normal" text-anchor="start" fill="#222222">40</text>
<text x="1298.00" y="332.42" font-family="Helvetica, Arial, sans-serif" font-size="22" font-weight="normal" text-anchor="start" fill="#222222">50</text>
<text x="1298.00" y="239.50" font-family="Helvetica, Arial, sans-serif" font-size="22" font-weight="normal" text-anchor="start" fill="#222222">60</text>
<text x="1298.00" y="146.58" font-family="Helvetica, Arial, sans-serif" font-size="22" font-weight="normal" text-anchor="start" fill="#222222">70</text>
<text x="1298.00" y="53.67" font-family="Helvetica, Arial, sans-serif" font-size="22" font-weight="normal" text-anchor="start" fill="#222222">80</text>
<polyline points="392.85,790.00 425.76,723.33 453.18,715.83 480.61,710.83 509.49,705.69 538.38,695.14 567.26,690.00 600.51,679.50 633.77,675.50 667.03,665.00 693.38,657.80 719.74,643.03 746.09,635.83 768.08,614.84 790.06,606.83 812.04,585.83 832.36,575.55 852.69,554.45 873.02,544.17 892.41,536.67 911.81,531.67 933.79,519.33 955.77,494.00 977.75,481.67 1001.28,471.17 1024.81,467.17 1048.34,456.67 1074.70,450.50 1101.05,437.83 1127.41,431.67 1145.96,410.67 1164.50,402.66 1183.05,381.67 1203.11,373.44 1223.18,356.56 1243.24,348.33 1276.21,340.83 1280.00,335.83" fill="none" stroke="#1f77b4" stroke-width="2.8" stroke-linejoin="round" stroke-linecap="round" opacity="0.75" />
<polyline points="355.55,790.00 385.48,748.33 410.43,728.33 435.37,715.00 473.98,708.83 512.59,696.17 551.20,690.00 577.55,684.75 603.91,682.75 630.26,677.50 655.94,666.19 681.62,642.98 707.30,631.67 734.77,622.92 762.25,619.58 789.72,610.83 819.26,600.83 848.80,585.83 865.71,558.33 882.63,540.00 904.61,531.78 926.59,514.89 948.57,506.67 974.93,485.67 1001.28,477.66 1027.64,456.67 1053.99,448.44 1080.35,431.56 1106.70,423.33 1131.21,412.83 1155.72,408.83 1180.23,398.33 1204.93,383.94 1229.63,354.39 1254.33,340.00 1276.99,331.25 1280.00,327.92 1280.00,319.17" fill="none" stroke="#1f77b4" stroke-width="2.8" stroke-linejoin="round" stroke-linecap="round" opacity="0.75" />
<polyline points="355.55,790.00 385.48,752.50 410.43,735.00 435.37,723.33 467.08,719.22 498.79,710.78 530.49,706.67 554.02,697.92 577.55,694.58 601.08,685.83 628.42,680.69 655.75,670.14 683.09,665.00 713.82,640.50 744.55,631.16 775.27,606.67 800.22,598.33 825.16,585.83 847.14,568.34 869.12,561.66 891.10,544.17 919.84,535.83 948.57,523.33 973.51,500.83 998.46,485.83 1024.81,477.61 1051.17,460.72 1077.52,452.50 1108.01,442.50 1138.50,435.83 1165.93,427.50 1193.35,415.00 1207.89,388.75 1222.43,378.75 1236.97,352.50 1265.05,342.50 1280.00,327.50 1280.00,320.00 1280.00,315.00" fill="none" stroke="#1f77b4" stroke-width="2.8" stroke-linejoin="round" stroke-linecap="round" opacity="0.75" />
<polyline points="365.60,790.00 385.48,790.00 393.51,757.50 401.54,735.83 433.78,730.60 466.02,718.33 498.26,716.02 530.49,706.67 563.75,697.92 597.01,694.58 630.26,685.83 662.00,676.87 693.73,655.83 725.46,651.87 757.19,635.83 775.47,614.84 793.75,606.83 812.04,585.83 845.29,574.52 878.55,551.31 911.81,540.00 942.98,517.25 974.15,508.58 1005.32,485.83 1022.48,473.50 1039.65,448.17 1056.82,435.83 1088.98,423.33 1121.15,415.00 1143.56,408.83 1165.97,396.17 1188.39,390.00 1204.58,367.25 1220.78,358.58 1236.97,335.83 1250.46,315.83 1263.94,285.83 1275.40,255.83 1280.00,235.83 1280.00,229.17 1280.00,219.17" fill="none" stroke="#1f77b4" stroke-width="2.8" stroke-linejoin="round" stroke-linecap="round" opacity="0.75" />
<polyline points="500.56,790.00 530.49,790.00 555.44,772.50 580.38,760.83 605.32,749.17 630.26,731.67 659.15,712.42 688.03,705.08 716.91,685.83 736.37,672.47 755.82,645.03 775.27,631.67 799.78,612.42 824.29,605.08 848.80,585.83 876.71,576.58 904.61,557.59 932.51,548.33 961.69,540.83 990.87,535.83 1014.80,529.17 1038.73,519.17 1058.56,505.17 1078.39,499.83 1098.23,485.83 1127.41,475.83 1156.59,460.83 1187.08,445.83 1217.57,435.83 1242.94,422.50 1268.30,402.50 1280.00,397.50 1280.00,394.17" fill="none" stroke="#1f77b4" stroke-width="2.8" stroke-linejoin="round" stroke-linecap="round" opacity="0.75" />
<polyline points="403.99,790.00 451.43,781.67 490.96,779.17 530.49,777.50 560.98,770.83 591.47,760.83 614.13,750.33 636.79,746.33 659.45,735.83 692.03,732.75 724.61,726.42 757.19,723.33 779.46,713.33 801.74,706.67 817.24,693.33 832.74,673.33 859.10,664.58 885.45,661.25 911.81,652.50 926.40,645.83 940.99,635.83 969.72,615.83 998.46,602.50 1027.64,595.83 1056.82,585.83 1085.55,575.83 1114.29,569.17 1142.66,555.83 1171.03,535.83 1195.10,521.84 1219.17,516.50 1243.24,502.50 1268.18,495.83 1280.00,485.83 1280.00,480.83 1280.00,477.50" fill="none" stroke="#1f77b4" stroke-width="2.8" stroke-linejoin="round" stroke-linecap="round" opacity="0.75" />
<polyline points="394.78,790.00 414.67,790.00 425.02,777.50 435.37,769.17 449.96,755.83 464.55,735.83 482.93,705.83 501.31,685.83 518.23,665.83 535.14,635.83 551.20,605.83 567.26,585.83 588.41,570.83 609.56,548.33 622.79,535.83 636.02,527.50 656.09,517.22 676.15,496.11 696.21,485.83 726.70,470.83 757.19,460.83 792.56,458.59 827.94,453.33 863.31,452.34 898.69,448.33 925.04,429.09 951.40,421.75 977.75,402.50 1011.01,398.39 1044.27,389.95 1077.52,385.83 1106.48,369.80 1135.44,365.83 1164.39,344.80 1193.35,335.83 1223.84,329.17 1254.33,319.17 1280.00,314.17 1280.00,310.83" fill="none" stroke="#1f77b4" stroke-width="2.8" stroke-linejoin="round" stroke-linecap="round" opacity="0.75" />
<polyline points="394.78,790.00 414.67,790.00 429.26,757.50 443.85,735.83 462.23,715.83 480.61,685.83 498.99,655.83 517.37,635.83 534.00,623.50 550.63,598.17 567.26,585.83 592.20,563.33 617.14,548.33 638.29,533.33 659.45,510.83 688.18,495.83 716.91,485.83 741.86,474.17 766.80,456.67 781.39,436.67 795.98,423.33 814.36,406.67 832.74,381.67 854.72,364.17 876.71,357.50 898.69,340.00 919.69,317.63 940.69,279.03 961.69,256.67 990.58,242.67 1019.46,237.33 1048.34,223.33 1075.40,214.37 1102.46,193.33 1129.53,189.37 1156.59,173.33 1192.16,162.64 1227.74,160.00 1263.31,145.98 1280.00,140.00" fill="none" stroke="#1f77b4" stroke-width="2.8" stroke-linejoin="round" stroke-linecap="round" opacity="0.75" />
<polyline points="120.00,790.00 120.00,785.83 120.00,781.67 120.00,777.50 120.00,773.33 120.00,769.17 120.00,765.00 122.27,760.83 132.80,756.67 144.15,752.50 152.35,748.33 153.09,744.17 157.80,740.00 161.83,735.83 163.20,731.67 164.98,727.50 178.45,723.33 182.79,719.17 189.20,715.00 194.99,710.83 208.84,706.67 209.57,702.50 211.79,698.33 229.53,694.17 232.47,690.00 232.89,685.83 234.83,681.67 240.33,677.50 244.72,673.33 249.47,669.17 256.58,665.00 258.93,660.83 263.01,656.67 267.42,652.50 268.78,648.33 291.75,644.17 292.62,640.00 293.23,635.83 305.27,631.67 312.03,627.50 312.56,623.33 316.85,619.17 317.29,615.00 324.44,610.83 326.08,606.67 333.13,602.50 359.99,598.33 364.17,594.17 367.13,590.00 367.90,585.83 370.72,581.67 378.90,577.50 386.20,573.33 391.17,569.17 396.80,565.00 406.28,560.83 409.71,556.67 412.05,552.50 420.10,548.33 434.74,544.17 447.27,540.00 448.77,535.83 451.49,531.67 460.47,527.50 467.04,523.33 467.25,519.17 470.58,515.00 470.74,510.83 472.56,506.67 476.76,502.50 485.05,498.33 489.19,494.17 489.22,490.00 493.65,485.83 494.48,481.67 497.29,477.50 502.32,473.33 504.45,469.17 505.12,465.00 507.08,460.83 509.65,456.67 514.93,452.50 521.20,448.33 524.02,444.17 524.43,440.00 527.05,435.83 532.68,431.67 537.07,427.50 555.90,423.33 581.10,419.17 582.50,415.00 593.03,410.83 599.74,406.67 601.22,402.50 624.34,398.33 638.07,394.17 638.95,390.00 639.35,385.83 642.15,381.67 643.80,377.50 652.75,373.33 659.39,369.17 660.38,365.00 662.18,360.83 676.90,356.67 681.66,352.50 685.33,348.33 685.69,344.17 694.68,340.00 695.79,335.83 697.26,331.67 701.12,327.50 701.98,323.33 714.60,319.17 715.56,315.00 717.43,310.83 720.13,306.67 721.35,302.50 722.22,298.33 722.78,294.17 731.99,290.00 736.73,285.83 740.26,281.67 741.29,277.50 750.60,273.33 752.44,269.17 773.02,265.00 774.54,260.83 775.51,256.67 778.08,252.50 790.74,248.33 794.60,244.17 797.54,240.00 798.56,235.83 801.17,231.67 808.32,227.50 812.22,223.33 816.96,219.17 817.64,215.00 826.45,210.83 832.34,206.67 833.71,202.50 836.99,198.33 873.65,194.17 873.89,190.00 883.23,185.83 896.78,181.67 904.54,177.50 907.17,173.33 907.54,169.17 910.82,165.00 912.10,160.83 921.25,156.67 929.28,152.50 945.99,148.33 951.67,144.17 961.11,140.00 977.38,135.83 979.43,131.67 982.05,127.50 991.92,123.33 996.41,119.17 997.97,115.00 1003.05,110.83 1005.16,106.67 1011.60,102.50 1019.99,98.33 1024.94,94.17 1035.85,90.00 1044.13,85.83 1049.26,81.67 1067.59,77.50 1072.57,73.33 1108.20,69.17" fill="none" stroke="#d62728" stroke-width="5" stroke-linejoin="round" stroke-linecap="round" />
<circle cx="120.00" cy="785.83" r="7.5" fill="#d62728" stroke="#ffffff" stroke-width="2.5" />
<circle cx="208.84" cy="706.67" r="7.5" fill="#d62728" stroke="#ffffff" stroke-width="2.5" />
<circle cx="312.56" cy="623.33" r="7.5" fill="#d62728" stroke="#ffffff" stroke-width="2.5" />
<circle cx="447.27" cy="540.00" r="7.5" fill="#d62728" stroke="#ffffff" stroke-width="2.5" />
<circle cx="509.65" cy="456.67" r="7.5" fill="#d62728" stroke="#ffffff" stroke-width="2.5" />
<circle cx="652.75" cy="373.33" r="7.5" fill="#d62728" stroke="#ffffff" stroke-width="2.5" />
<circle cx="731.99" cy="290.00" r="7.5" fill="#d62728" stroke="#ffffff" stroke-width="2.5" />
<circle cx="832.34" cy="206.67" r="7.5" fill="#d62728" stroke="#ffffff" stroke-width="2.5" />
<circle cx="991.92" cy="123.33" r="7.5" fill="#d62728" stroke="#ffffff" stroke-width="2.5" />
<circle cx="1108.20" cy="69.17" r="7.5" fill="#d62728" stroke="#ffffff" stroke-width="2.5" />
<rect x="138.00" y="60.00" width="560" height="116" rx="6" ry="6" fill="#fafafa" stroke="#c9c9c9" stroke-width="2" opacity="0.96" />
<line x1="156.00" y1="96.00" x2="214.00" y2="96.00" stroke="#d62728" stroke-width="5" stroke-linecap="round" />
<circle cx="185.00" cy="96.00" r="7.5" fill="#d62728" stroke="#ffffff" stroke-width="2.5" />
<text x="230.00" y="104.00" font-family="Helvetica, Arial, sans-serif" font-size="24" font-weight="normal" text-anchor="start" fill="#222222">Recursive Heuristic</text>
<line x1="156.00" y1="140.00" x2="214.00" y2="140.00" stroke="#1f77b4" stroke-width="4" stroke-linecap="round" opacity="0.75" />
<text x="230.00" y="148.00" font-family="Helvetica, Arial, sans-serif" font-size="24" font-weight="normal" text-anchor="start" fill="#222222">Google Deepmind Novelty+RGD</text>
<text x="700.00" y="872.00" font-family="Helvetica, Arial, sans-serif" font-size="28" font-weight="normal" text-anchor="middle" fill="#222222">Planning Time Per Puzzle (seconds)</text>
<text x="42.00" y="415.00" font-family="Helvetica, Arial, sans-serif" font-size="28" font-weight="normal" text-anchor="middle" fill="#222222" transform="rotate(-90 42.00 415.00)">Number of Puzzles Solved</text>
<text x="1368.00" y="415.00" font-family="Helvetica, Arial, sans-serif" font-size="28" font-weight="normal" text-anchor="middle" fill="#222222" transform="rotate(90 1368.00 415.00)">% of Puzzles Solved</text>
</svg>
